<svg id="Control_item" data-name="Control item" xmlns="http://www.w3.org/2000/svg" width="16" height="16" viewBox="0 0 16 16">
  <rect id="Container" width="16" height="16" fill="none"/>
  <path id="Icon_Bold_Media_Pause" data-name="Icon / Bold / Media / Pause" d="M6.583,13.167A.584.584,0,0,1,6,12.615V.583A.584.584,0,0,1,6.551,0H9.583a.584.584,0,0,1,.582.551V12.583a.584.584,0,0,1-.551.582H6.583Zm-6,0A.584.584,0,0,1,0,12.615V.583A.584.584,0,0,1,.551,0H3.583a.584.584,0,0,1,.582.551V12.583a.584.584,0,0,1-.551.582H.583Z" transform="translate(2.917 1.417)" fill="#fff"/>
</svg>