<svg id="Show" xmlns="http://www.w3.org/2000/svg" width="20" height="20" viewBox="0 0 20 20">
  <rect id="Container" width="20" height="20" fill="none"/>
  <path id="합치기_10" data-name="합치기 10" d="M-10953-1501.5a9.51,9.51,0,0,1,9.5-9.5,9.511,9.511,0,0,1,9.5,9.5,9.511,9.511,0,0,1-9.5,9.5A9.51,9.51,0,0,1-10953-1501.5Zm1.688,0a7.819,7.819,0,0,0,7.811,7.811,7.819,7.819,0,0,0,7.812-7.811,7.819,7.819,0,0,0-7.812-7.811A7.82,7.82,0,0,0-10951.312-1501.5Zm7.811.739a.739.739,0,0,1-.738-.739v-4.271a.739.739,0,0,1,.738-.739.739.739,0,0,1,.739.739v3.533h2.448a.739.739,0,0,1,.739.739.739.739,0,0,1-.739.739Z" transform="translate(10953.634 1511.633)"/>
</svg>
