<svg id="Shipping" xmlns="http://www.w3.org/2000/svg" width="20" height="20" viewBox="0 0 20 20">
  <rect id="Container" width="20" height="20" fill="none"/>
  <g id="그룹_18" data-name="그룹 18" transform="translate(0.6 3)">
    <path id="shipping-2" data-name="shipping" d="M19.06,24.611a.338.338,0,0,1-.268.108H17.312a2.269,2.269,0,0,0-3.476-1.146V17.236h3.32a.769.769,0,0,1,.706.583l.063.327h-1.97a.605.605,0,0,0-.6.607v2.225a.605.605,0,0,0,.6.607h2.632l.528,2.743a.338.338,0,0,1-.055.283ZM16.481,25.73a1.361,1.361,0,1,1,.035-.3A1.365,1.365,0,0,1,16.481,25.73Zm1.951-4.955H16.162v-1.82h1.919Zm-5.606,3.944H8.009a2.273,2.273,0,0,0-4.322,0H2.511V15.011H12.825ZM7.178,25.73a1.341,1.341,0,1,1,.035-.3,1.366,1.366,0,0,1-.035.3Zm12.93-1.594-1.252-6.508a1.777,1.777,0,0,0-1.7-1.4h-3.32V14.708A.708.708,0,0,0,13.129,14H2.208a.708.708,0,0,0-.708.708V25.022a.708.708,0,0,0,.708.708H3.6a2.273,2.273,0,0,0,4.505,0h4.8a2.273,2.273,0,0,0,4.505,0h1.388a1.311,1.311,0,0,0,1.317-1.594Z" transform="translate(-1.298 -13.798)"/>
    <path id="shipping_-_윤곽선" data-name="shipping - 윤곽선" d="M14.353,27.106a2.48,2.48,0,0,1-2.423-1.972H7.473a2.475,2.475,0,0,1-4.846,0H1.41a.911.911,0,0,1-.91-.91V13.91A.911.911,0,0,1,1.41,13H12.331a.911.911,0,0,1,.91.91v1.315h3.118a1.979,1.979,0,0,1,1.9,1.567L19.509,23.3a1.513,1.513,0,0,1-1.515,1.835H16.777A2.479,2.479,0,0,1,14.353,27.106ZM7.126,24.73h5.152l.023.175a2.07,2.07,0,0,0,4.1,0l.023-.175h1.565A1.108,1.108,0,0,0,19.116,23.4l0-.02L17.86,16.868a1.569,1.569,0,0,0-1.5-1.239H12.837V13.91a.506.506,0,0,0-.506-.506H1.41A.506.506,0,0,0,.9,13.91V24.224a.506.506,0,0,0,.506.506H2.975L3,24.905a2.07,2.07,0,0,0,4.1,0ZM14.353,26.2a1.565,1.565,0,0,1-1.338-2.381,1.583,1.583,0,0,1,.559-.546,1.56,1.56,0,0,1,1.557,0,1.585,1.585,0,0,1,.559.546A1.567,1.567,0,0,1,14.353,26.2Zm0-2.73a1.163,1.163,0,1,0,1.163,1.163,1.169,1.169,0,0,0-1.163-1.163ZM5.05,26.2a1.567,1.567,0,1,1,.779-2.927,1.584,1.584,0,0,1,.559.546A1.567,1.567,0,0,1,5.05,26.2Zm0-2.73a1.161,1.161,0,1,0,1.16,1.162,1.168,1.168,0,0,0-1.16-1.162Zm12.943.657H16.368l-.046-.139a2.067,2.067,0,0,0-3.166-1.044l-.32.227V16.236h3.523a.972.972,0,0,1,.9.747l.109.567H15.158a.4.4,0,0,0-.4.4V20.18a.4.4,0,0,0,.4.4h2.8l.559,2.907a.5.5,0,0,1-.522.632Zm-1.337-.4h1.337a.151.151,0,0,0,.112-.035.153.153,0,0,0,.013-.117l-.5-2.579H15.158a.808.808,0,0,1-.8-.809V17.955a.808.808,0,0,1,.8-.809h1.726l-.017-.087a.569.569,0,0,0-.507-.419H13.241v5.777a2.476,2.476,0,0,1,3.415,1.3Zm-4.629.4H7.065l-.046-.139a2.071,2.071,0,0,0-3.937,0l-.046.139H1.511V14.011H12.23v9.91h-.2Zm-4.675-.4h4.472v-9.3H1.916v9.3h.832a2.476,2.476,0,0,1,4.605,0ZM17.879,20.18H15.162V17.955h2.288Zm-2.312-.4h1.822l-.272-1.416h-1.55Z" transform="translate(-0.5 -13)"/>
  </g>
</svg>
