<svg id="Control_item" data-name="Control item" xmlns="http://www.w3.org/2000/svg" width="16" height="16" viewBox="0 0 16 16">
  <rect id="Container" width="16" height="16" fill="none"/>
  <path id="Icon_Bold_Media_Play" data-name="Icon / Bold / Media / Play" d="M.524.084a.918.918,0,0,1,.882.062l.037.024,8.725,5.978A.938.938,0,0,1,10.2,7.687l-.035.025L1.442,13.691a.953.953,0,0,1-.539.171.9.9,0,0,1-.418-.1A.917.917,0,0,1,0,12.973V.931A.922.922,0,0,1,.449.123L.485.1Z" transform="translate(2.707 1.069)" fill="#fff"/>
</svg>